<svg style="background: #333;" xmlns="http://www.w3.org/2000/svg" viewBox="0 0 1440 320">
    <path fill="#ffc400" fill-opacity="1"
        d="M0,160L6.2,176C12.3,192,25,224,37,208C49.2,192,62,128,74,117.3C86.2,107,98,149,111,160C123.1,171,135,149,148,128C160,107,172,85,185,74.7C196.9,64,209,64,222,74.7C233.8,85,246,107,258,117.3C270.8,128,283,128,295,128C307.7,128,320,128,332,122.7C344.6,117,357,107,369,85.3C381.5,64,394,32,406,21.3C418.5,11,431,21,443,69.3C455.4,117,468,203,480,208C492.3,213,505,139,517,122.7C529.2,107,542,149,554,154.7C566.2,160,578,128,591,138.7C603.1,149,615,203,628,234.7C640,267,652,277,665,256C676.9,235,689,181,702,149.3C713.8,117,726,107,738,117.3C750.8,128,763,160,775,149.3C787.7,139,800,85,812,64C824.6,43,837,53,849,96C861.5,139,874,213,886,213.3C898.5,213,911,139,923,122.7C935.4,107,948,149,960,176C972.3,203,985,213,997,213.3C1009.2,213,1022,203,1034,181.3C1046.2,160,1058,128,1071,96C1083.1,64,1095,32,1108,42.7C1120,53,1132,107,1145,144C1156.9,181,1169,203,1182,186.7C1193.8,171,1206,117,1218,128C1230.8,139,1243,213,1255,234.7C1267.7,256,1280,224,1292,197.3C1304.6,171,1317,149,1329,144C1341.5,139,1354,149,1366,165.3C1378.5,181,1391,203,1403,181.3C1415.4,160,1428,96,1434,64L1440,32L1440,0L1433.8,0C1427.7,0,1415,0,1403,0C1390.8,0,1378,0,1366,0C1353.8,0,1342,0,1329,0C1316.9,0,1305,0,1292,0C1280,0,1268,0,1255,0C1243.1,0,1231,0,1218,0C1206.2,0,1194,0,1182,0C1169.2,0,1157,0,1145,0C1132.3,0,1120,0,1108,0C1095.4,0,1083,0,1071,0C1058.5,0,1046,0,1034,0C1021.5,0,1009,0,997,0C984.6,0,972,0,960,0C947.7,0,935,0,923,0C910.8,0,898,0,886,0C873.8,0,862,0,849,0C836.9,0,825,0,812,0C800,0,788,0,775,0C763.1,0,751,0,738,0C726.2,0,714,0,702,0C689.2,0,677,0,665,0C652.3,0,640,0,628,0C615.4,0,603,0,591,0C578.5,0,566,0,554,0C541.5,0,529,0,517,0C504.6,0,492,0,480,0C467.7,0,455,0,443,0C430.8,0,418,0,406,0C393.8,0,382,0,369,0C356.9,0,345,0,332,0C320,0,308,0,295,0C283.1,0,271,0,258,0C246.2,0,234,0,222,0C209.2,0,197,0,185,0C172.3,0,160,0,148,0C135.4,0,123,0,111,0C98.5,0,86,0,74,0C61.5,0,49,0,37,0C24.6,0,12,0,6,0L0,0Z"></path>
</svg>